<?xml version="1.0" encoding="UTF-8"?>
<!DOCTYPE svg PUBLIC "-//W3C//DTD SVG 1.1//EN" "http://www.w3.org/Graphics/SVG/1.1/DTD/svg11.dtd">
<!-- Creator: CorelDRAW 2017 -->
<svg xmlns="http://www.w3.org/2000/svg" xml:space="preserve" width="38mm" height="22mm" version="1.1" style="shape-rendering:geometricPrecision; text-rendering:geometricPrecision; image-rendering:optimizeQuality; fill-rule:evenodd; clip-rule:evenodd"
viewBox="0 0 3800 2200"
 xmlns:xlink="http://www.w3.org/1999/xlink">
 <defs>
  <style type="text/css">
   <![CDATA[
    .str0 {stroke:#2B2A29;stroke-width:7.62;stroke-miterlimit:22.9256}
    .str1 {stroke:black;stroke-width:7.62;stroke-miterlimit:22.9256}
    .fil0 {fill:#FEFEFE}
    .fil1 {fill:#00A0E3}
   ]]>
  </style>
 </defs>
 <g id="Слой_x0020_1">
  <metadata id="CorelCorpID_0Corel-Layer"/>
  <path class="fil0 str0" d="M936.62 84.1l-867.24 867.24c-86.71,86.71 178.15,261.71 472.06,300.83 449.71,59.84 826.48,-124.99 1476.11,-123.46 122.62,0.29 220.58,-147.39 101.67,-177.37l-339.84 -85.7 -100.08 -354.22 -427.32 -427.32c-86.72,-86.72 -228.64,-86.72 -315.36,0z"/>
  <path class="fil0 str0" d="M1727.8 190.72l-1169.6 1169.61c-116.95,116.95 240.25,352.96 636.63,405.72 606.51,80.7 1114.64,-168.57 1990.78,-166.51 165.37,0.39 297.48,-198.78 137.11,-239.22l-458.33 -115.57 -134.96 -477.72 -576.32 -576.31c-116.96,-116.95 -308.35,-116.95 -425.31,0z"/>
  <g id="_1117788640">
   <path class="fil1 str1" d="M3209.43 1280.91c-55.49,0 -60.07,1.45 -116.38,-12.33 -50.86,-12.44 -93.72,-38.16 -134.02,-68.74 -46.12,-34.99 -83.04,-89.93 -106.36,-142.24 -14.65,-32.86 -33.31,-104.74 -27.89,-150.71 3.97,-33.68 -0.71,-37.2 10.13,-79.84 10.66,-41.94 31.69,-89.84 56.65,-123.19 41.87,-55.91 82.77,-91.39 149.19,-122.34 21.35,-9.95 42.41,-16.07 67.46,-22.45 13.18,-3.36 24.71,-4.85 39.18,-6.67l83.74 -0.21c39.9,5.51 70.86,12.63 106.99,28.77 62.89,28.1 110.2,68.51 149.62,121.91 36.2,49.03 62.19,118.59 67.18,181.42 0.59,7.49 -0.48,14.85 0.59,22.38 2.62,18.38 -2.72,61.83 -6.54,80.81 -4.96,24.61 -11.87,48.47 -21.01,68.91 -28.75,64.32 -63.09,110.46 -119.04,152.49 -35.6,26.74 -76.37,47.35 -120.5,59.34 -22.08,6 -51.96,12.69 -78.99,12.69zm-578.32 -430.21c0,30.93 17.55,65.07 28.21,86.4 21.32,42.62 29.98,54.87 29.98,104.02 0,80.14 -31.73,135.75 54.3,187.25 59.36,35.53 85.64,33.86 125.89,98.04 51.67,82.4 60.45,120.37 174.72,101.36 37.94,-6.31 35.44,-5.8 71.77,-5.8 33.48,0 80.78,27.07 109.09,37.25 70.38,25.3 99.17,4.52 148.76,-45.64l38.88 -35.17c44.77,-37.93 117.61,-31.06 161.4,-57.24 8.87,-5.3 14.37,-8.85 21.44,-15.58 6.27,-5.97 11.73,-13.03 15.91,-21.12 28.52,-55.27 14.37,-113.77 50.72,-167.91 25.94,-38.65 86.78,-85.64 86.78,-135.38 0,-59.06 -58.19,-118.66 -58.19,-172.79 0,-92.54 30.87,-156.3 -52.96,-204.46 -15.65,-8.99 -31.46,-17.44 -48.15,-25.9 -92.55,-46.9 -85.54,-115.09 -138.4,-157.82 -50.29,-40.65 -110.95,-10.3 -167.78,-10.3 -66.59,0 -77.92,-20.76 -135.96,-40.35 -31.76,-10.72 -60.91,-13.69 -90.09,4.72 -12.84,8.1 -23.09,15.83 -33.58,26.38l-46.13 43.78c-6.24,4.88 -11.01,8.63 -16.89,13.09 -60.8,46.13 -163.77,16.02 -198.53,102.97 -22.56,56.43 -9.4,108.11 -49.07,160.74l-34.09 39.96c-3.54,3.81 -3.72,5.06 -7.06,8.81 -10.41,11.68 -17.28,20.31 -25.67,34.28 -6.63,11.04 -15.3,29.79 -15.3,46.41z"/>
   <path class="fil1 str1" d="M3019.01 2010.86c29.75,0 38.18,7.65 57.77,25.1l166.57 141.98c6.48,5.91 17.51,11.83 26.3,6.11 8.46,-5.49 10.24,-15.92 11.8,-27.12l97.24 -675.02c-7.33,1.71 -21.81,15.28 -39.35,24.13 -58.56,29.51 -111.93,10.83 -168.1,-14.15 -89.17,-39.66 -86.86,-8.21 -182.2,-8.21 -52.14,0 -83.89,-20.56 -112.46,-53.29 -5.73,-6.57 -21.19,-25.16 -23.31,-33.11 -5.44,3.99 -3.12,4.09 -4.33,13.31l-91.18 636.99c-2.66,18.84 -10.8,51.67 -1.87,62.43 6.3,7.61 17.27,6.48 26.3,2.58l77.89 -34.98c17.38,-7.07 33.97,-15.8 52.39,-23.41l25.43 -11.6c17.9,-8.69 65.71,-31.74 81.11,-31.74z"/>
   <path class="fil1 str1" d="M3378.69 1834.55c10.23,4.9 264.13,79.34 269.77,79.34 34.08,0 24.96,-25.03 18.7,-52.21 -16.7,-72.42 -31.19,-150.65 -47.99,-223.54 -5,-21.72 -9.47,-41.85 -13.77,-63.8 -4.35,-22.23 -9.46,-41.69 -13.82,-63.76l-27.76 -129.17c-8.68,0.73 -22.27,5.14 -31.38,7.41 -10.06,2.52 -22.38,5.59 -32.45,8.11 -23.62,5.9 -40.27,8.85 -56.7,22.64 -8.55,7.18 -5.78,8.36 -8.94,29.84 -1.88,12.77 -3.28,22.76 -5.3,35.26 -10.85,67.27 -19.74,140.42 -29.96,209.82l-20.4 140.06z"/>
  </g>
 </g>
</svg>
