<?xml version="1.0" encoding="UTF-8"?>
<!DOCTYPE svg PUBLIC "-//W3C//DTD SVG 1.1//EN" "http://www.w3.org/Graphics/SVG/1.1/DTD/svg11.dtd">
<!-- Creator: CorelDRAW 2017 -->
<svg xmlns="http://www.w3.org/2000/svg" xml:space="preserve" width="27mm" height="20mm" version="1.1" style="shape-rendering:geometricPrecision; text-rendering:geometricPrecision; image-rendering:optimizeQuality; fill-rule:evenodd; clip-rule:evenodd"
viewBox="0 0 2700 2000"
 xmlns:xlink="http://www.w3.org/1999/xlink">
 <defs>
  <style type="text/css">
   <![CDATA[
    .str0 {stroke:#2B2A29;stroke-width:7.62;stroke-miterlimit:22.9256}
    .fil0 {fill:#FEFEFE}
    .fil1 {fill:#EBECEC}
    .fil2 {fill:#00A0E3}
   ]]>
  </style>
 </defs>
 <g id="Слой_x0020_1">
  <metadata id="CorelCorpID_0Corel-Layer"/>
  <g id="_1118582192">
   <path class="fil0 str0" d="M1371.43 1715.64c0,35.43 -120.41,64.15 -268.93,64.15 -148.53,0 -268.94,-28.72 -268.94,-64.15l0 -374.87 537.87 0 0 374.87z"/>
   <ellipse class="fil0 str0" cx="1102.5" cy="1340.77" rx="268.94" ry="64.15"/>
   <ellipse class="fil1 str0" cx="1102.5" cy="1340.77" rx="185.24" ry="34.13"/>
  </g>
  <g id="_1118581456">
   <path class="fil0 str0" d="M2015.21 1719.73c0,35.43 -120.41,64.15 -268.93,64.15 -148.53,0 -268.94,-28.72 -268.94,-64.15l0 -374.87 537.87 0 0 374.87z"/>
   <ellipse class="fil0 str0" cx="1746.28" cy="1344.86" rx="268.94" ry="64.15"/>
   <ellipse class="fil1 str0" cx="1746.28" cy="1344.86" rx="185.24" ry="34.13"/>
  </g>
  <g id="_1118572400">
   <path class="fil0 str0" d="M2659 1706.82c0,35.43 -120.41,64.15 -268.93,64.15 -148.53,0 -268.94,-28.72 -268.94,-64.15l0 -374.87 537.87 0 0 374.87z"/>
   <ellipse class="fil0 str0" cx="2390.07" cy="1331.95" rx="268.94" ry="64.15"/>
   <ellipse class="fil1 str0" cx="2390.07" cy="1331.95" rx="185.24" ry="34.13"/>
  </g>
  <g id="_1118580688">
   <path class="fil0 str0" d="M1021.91 1307.03c0,35.43 -120.41,64.15 -268.93,64.15 -148.53,0 -268.94,-28.72 -268.94,-64.15l0 -374.87 537.87 0 0 374.87z"/>
   <ellipse class="fil0 str0" cx="752.98" cy="932.16" rx="268.94" ry="64.15"/>
   <ellipse class="fil1 str0" cx="752.98" cy="932.16" rx="185.24" ry="34.13"/>
  </g>
  <g id="_1118560848">
   <path class="fil0 str0" d="M1665.69 1311.12c0,35.43 -120.41,64.15 -268.93,64.15 -148.53,0 -268.94,-28.72 -268.94,-64.15l0 -374.87 537.87 0 0 374.87z"/>
   <ellipse class="fil0 str0" cx="1396.76" cy="936.25" rx="268.94" ry="64.15"/>
   <ellipse class="fil1 str0" cx="1396.76" cy="936.25" rx="185.24" ry="34.13"/>
  </g>
  <g id="_1118567888">
   <path class="fil0 str0" d="M2309.48 1298.21c0,35.43 -120.41,64.15 -268.93,64.15 -148.53,0 -268.94,-28.72 -268.94,-64.15l0 -374.87 537.87 0 0 374.87z"/>
   <ellipse class="fil0 str0" cx="2040.55" cy="923.34" rx="268.94" ry="64.15"/>
   <ellipse class="fil1 str0" cx="2040.55" cy="923.34" rx="185.24" ry="34.13"/>
  </g>
  <g id="_1118567632">
   <path class="fil0 str0" d="M1292.06 868.97c0,35.43 -120.41,64.15 -268.93,64.15 -148.53,0 -268.94,-28.72 -268.94,-64.15l0 -374.87 537.87 0 0 374.87z"/>
   <ellipse class="fil0 str0" cx="1023.13" cy="494.1" rx="268.94" ry="64.15"/>
   <ellipse class="fil1 str0" cx="1023.13" cy="494.1" rx="185.24" ry="34.13"/>
  </g>
  <g id="_1118562576">
   <path class="fil0 str0" d="M1935.84 873.06c0,35.43 -120.41,64.15 -268.93,64.15 -148.53,0 -268.94,-28.72 -268.94,-64.15l0 -374.87 537.87 0 0 374.87z"/>
   <ellipse class="fil0 str0" cx="1666.91" cy="498.19" rx="268.94" ry="64.15"/>
   <ellipse class="fil1 str0" cx="1666.91" cy="498.19" rx="185.24" ry="34.13"/>
  </g>
  <g id="_1118569360">
   <path class="fil0 str0" d="M1569.86 475.64c0,35.43 -120.41,64.15 -268.93,64.15 -148.53,0 -268.94,-28.72 -268.94,-64.15l0 -374.87 537.87 0 0 374.87z"/>
   <ellipse class="fil0 str0" cx="1300.93" cy="100.77" rx="268.94" ry="64.15"/>
   <ellipse class="fil1 str0" cx="1300.93" cy="100.77" rx="185.24" ry="34.13"/>
  </g>
  <g id="_1118569968">
   <path class="fil0 str0" d="M727.65 1728.55c0,35.43 -120.41,64.15 -268.93,64.15 -148.53,0 -268.94,-28.72 -268.94,-64.15l0 -374.87 537.87 0 0 374.87z"/>
   <ellipse class="fil0 str0" cx="458.72" cy="1353.68" rx="268.94" ry="64.15"/>
   <ellipse class="fil1 str0" cx="458.72" cy="1353.68" rx="185.24" ry="34.13"/>
  </g>
  <g id="_1118566992">
   <path class="fil2 str0" d="M868.66 1858.31c0,54.6 -185.54,98.85 -414.4,98.85 -228.87,0 -414.41,-44.25 -414.41,-98.85l0 -577.64 828.81 0 0 577.64z"/>
   <ellipse class="fil2 str0" cx="454.26" cy="1280.67" rx="414.41" ry="98.85"/>
   <ellipse class="fil1 str0" cx="454.26" cy="1280.67" rx="285.44" ry="52.59"/>
  </g>
 </g>
</svg>
